# AST/ASF file generated using VICON BodyLanguage
# -----------------------------------------------
:version 1.10
:name VICON
:units
  mass 1.0
  length 0.45
  angle deg
:documentation
   .ast/.asf automatically generated from VICON data using
   VICON BodyBuilder and BodyLanguage model FoxedUp or BRILLIANT.MOD
:root
   order TX TY TZ RX RY RZ
   axis XYZ
   position 0 0 0  
   orientation 0 0 0 
:bonedata
  begin
     id 1 
     name lhipjoint
     direction 0.584852 -0.759097 0.285867 
     length 2.43633 
     axis 0 0 0  XYZ
  end
  begin
     id 2 
     name lfemur
     direction 0.34202 -0.939693 0  
     length 7.14704  
     axis 0 0 20  XYZ
    dof rx ry rz
    limits (-160.0 20.0)
           (-70.0 70.0)
           (-60.0 70.0)
  end
  begin
     id 3 
     name ltibia
     direction 0.342022 -0.939692 0   
     length 7.68483   
     axis 0 0 20   XYZ
    dof rx
    limits (-10.0 170.0)
  end
  begin
     id 4 
     name lfoot
     direction 0.0999605 -0.274639 0.956337   
     length 2.40452   
     axis -90 7.62852e-016 20   XYZ
    dof rx rz
    limits (-45.0 90.0)
           (-70.0 20.0)
  end
  begin
     id 5 
     name ltoes
     direction 1.53468e-011 -4.21881e-011 1   
     length 1.19837   
     axis -90 7.62852e-016 20   XYZ
    dof rx
    limits (-90.0 20.0)
  end
  begin
     id 6 
     name rhipjoint
     direction -0.569886 -0.769002 0.289597   
     length 2.40495  
     axis 0 0 0  XYZ 
  end
  begin
     id 7 
     name rfemur
     direction -0.34202 -0.939693 0   
     length 7.45086   
     axis 0 0 -20   XYZ
    dof rx ry rz
    limits (-160.0 20.0)
           (-70.0 70.0)
           (-70.0 60.0)
  end
  begin
     id 8 
     name rtibia
     direction -0.34202 -0.939693 0   
     length 7.76831   
     axis 0 0 -20   XYZ
    dof rx
    limits (-10.0 170.0)
 end
 begin
     id 9 
     name rfoot
     direction -0.0798572 -0.219406 0.97236   
     length 2.35911  
     axis -90 -7.62852e-016 -20   XYZ
    dof rx rz
    limits (-45.0 90.0)
           (-20.0 70.0)
  end
  begin
     id 10 
     name rtoes
     direction -1.53469e-011 -4.21728e-011 1   
     length 1.18261   
     axis -90 -7.62852e-016 -20   XYZ
    dof rx
    limits (-90.0 20.0)
  end
  begin
     id 11 
     name lowerback
     direction 0.0242088 0.999437 0.0232389   
     length 2.1561   
     axis 0 0 0   XYZ
    dof rx ry rz
    limits (-20.0 45.0)
           (-30.0 30.0)
           (-30.0 30.0)
  end
  begin
     id 12 
     name upperback
     direction -0.0356893 0.999013 -0.0264323   
     length 2.14431   
     axis 0 0 0   XYZ
    dof rx ry rz
    limits (-20.0 45.0)
           (-30.0 30.0)
           (-30.0 30.0)
  end
  begin
     id 13 
     name thorax
     direction -0.0472163 0.998194 -0.0371284   
     length 2.16169   
     axis 0 0 0   XYZ
    dof rx ry rz
    limits (-20.0 45.0)
           (-30.0 30.0)
           (-30.0 30.0)
  end
  begin
     id 14 
     name lowerneck
     direction 0.00863244 0.999921 0.00911972   
     length 1.58651   
     axis 0 0 0   XYZ
    dof rx ry rz
    limits (-20.0 45.0)
           (-30.0 30.0)
           (-30.0 30.0)
  end
  begin
     id 15 
     name upperneck
     direction 0.149523 0.979068 -0.138086   
     length 1.57486   
     axis 0 0 0   XYZ
    dof rx ry rz
    limits (-20.0 45.0)
           (-30.0 30.0)
           (-30.0 30.0)
  end
  begin
     id 16
     name head
     direction 0.0445219 0.997708 -0.0509576  
     length 1.6019  
     axis 0 0 0   XYZ
    dof rx ry rz
    limits (-20.0 45.0)
           (-30.0 30.0)
           (-30.0 30.0)
  end
  begin
     id 17 
     name lclavicle
     direction 0.911271 0.381667 -0.154644  
     length 3.80848  
     axis 0 0 0   XYZ
    dof ry rz
    limits (-20.0 10.0)
           (0.0 20.0)
  end
  begin
     id 18 
     name lhumerus
     direction 1 -4.49003e-011 2.1308e-027   
     length 5.19069   
     axis 180 -30 -90   XYZ
    dof rx ry rz
    limits (-60.0 90.0)
           (-90.0 90.0)
           (-90.0 90.0)
  end
  begin
     id 19
     name lradius
     direction 1 -4.48914e-011 4.01554e-027   
     length 3.30016   
     axis 180 -30 -90   XYZ
    dof rx
    limits (-10.0 170.0)
  end
  begin
     id 20
     name lwrist
     direction 1 -4.49003e-011 1.1934e-026   
     length 1.65008   
     axis -8.46377e-015 90 90   XYZ
    dof ry
    limits (-180.0 0.0)
 end
  begin
     id 21 
     name lhand
     direction 1 -4.49034e-011 2.38659e-026   
     length 0.707698   
     axis -1.52313e-014 90 90   XYZ
    dof rx rz
    limits (-90.0 90.0)
           (-45.0 45.0)
  end
  begin
     id 22 
     name lfingers
     direction 1 -4.48691e-011 4.77775e-026   
     length 0.570564   
     axis -3.04623e-014 90 90   XYZ
    dof rx
    limits (0.0 90.0)
  end
  begin
     id 23
     name lthumb
     direction 0.707107 -6.34832e-011 0.707107   
     length 0.819219   
     axis -90 45 -1.62303e-014   XYZ
    dof rx rz
    limits (-45.0 45.0)
           (-45.0 45.0)
  end
  begin
     id 24 
     name rclavicle
     direction -0.815579 0.573708 -0.0754329   
     length 3.54371  
     axis 0 0 0   XYZ 
    dof ry rz
    limits (-10.0 20.0)
           (-20.0 0.0)
  end
  begin
     id 25 
     name rhumerus
     direction -1 -4.48956e-011 3.05351e-028  
     length 5.23924   
     axis 180 30 90   XYZ
    dof rx ry rz
    limits (-90.0 60.0)
           (-90.0 90.0)
           (-90.0 90.0)
  end
  begin
     id 26 
     name rradius
     direction -1 -4.49013e-011 3.53849e-027   
     length 3.32953   
     axis 180 30 90   XYZ
    dof rx
    limits (-10.0 170.0)
  end
  begin
     id 27 
     name rwrist
     direction -1 -4.48901e-011 1.19374e-026   
     length 1.66477   
     axis -8.46377e-015 -90 -90   XYZ
    dof ry
    limits (-180.0 0.0)
  end
  begin
     id 28
     name rhand
     direction -1 -4.48877e-011 2.38764e-026   
     length 0.607414   
     axis -1.52313e-014 -90 -90   XYZ
    dof rx rz
    limits (-90.0 90.0)
           (-45.0 45.0)
  end
  begin
     id 29
     name rfingers
     direction -1 -4.48882e-011 4.77521e-026   
     length 0.489712   
     axis -3.04623e-014 -90 -90   XYZ
    dof rx
    limits (0.0 90.0)
  end
  begin
     id 30
     name rthumb
     direction -0.707107 -6.34974e-011 0.707107   
     length 0.703132   
     axis -90 -45 1.62303e-014   XYZ
    dof rx rz
    limits (-45.0 45.0)
           (-45.0 45.0)
  end
:hierarchy
  begin
    root lhipjoint rhipjoint lowerback
    lhipjoint lfemur
    lfemur ltibia
    ltibia lfoot
    lfoot ltoes
    rhipjoint rfemur
    rfemur rtibia
    rtibia rfoot
    rfoot rtoes
    lowerback upperback
    upperback thorax
    thorax lowerneck lclavicle rclavicle
    lowerneck upperneck
    upperneck head
    lclavicle lhumerus
    lhumerus lradius
    lradius lwrist
    lwrist lhand lthumb
    lhand lfingers
    rclavicle rhumerus
    rhumerus rradius
    rradius rwrist
    rwrist rhand rthumb
    rhand rfingers
  end

#!OML:ASF E:\VariousWalksJay\Project 1\Capture day 1\Session 1\Actor2.ASF
:FULLY-SPECIFIED
:DEGREES
1
root 4.35778 17.1813 2.03759 1.59095 -4.68167 -10.6683
lowerback 0.0633883 -2.839 9.84713
upperback 5.09432 -4.11626 0.873045
thorax 4.69578 -1.65901 -4.72649
lowerneck 0.77006 -14.279 -13.5794
upperneck 0.517619 -20.2591 23.6047
head 3.9722 -10.084 8.2046
rclavicle 4.3832e-014 -1.51076e-014
rhumerus -27.5226 -4.09231 -85.5978
rradius 26.6733
rwrist 2.66357
rhand -11.3052 -6.8334
rfingers 7.12502
rthumb 14.7265 -36.2903
lclavicle 4.3832e-014 -1.51076e-014
lhumerus -23.448 7.52801 78.6087
lradius 18.9315
lwrist 0.494211
lhand -9.54223 -4.51587
lfingers 7.12502
lthumb 16.4244 24.8088
rfemur -19.0338 4.16601 29.3238
rtibia 37.2791
rfoot -17.4259 -2.62594
rtoes -2.25637
lfemur -9.1793 5.41378 -7.1725
ltibia 37.2337
lfoot -27.9453 14.4745
ltoes -8.68502
2
root 4.32375 17.1808 2.05593 1.55815 -4.4859 -10.7291
lowerback 0.0647393 -2.84626 9.99666
upperback 5.10001 -4.13122 0.901824
thorax 4.69344 -1.66061 -4.77923
lowerneck 0.721571 -14.3059 -13.5119
upperneck 0.460083 -20.2824 23.622
head 3.96317 -10.0941 8.19397
rclavicle 3.33958e-014 -5.48646e-014
rhumerus -27.4311 -3.9545 -85.697
rradius 26.8742
rwrist 2.55095
rhand -11.391 -6.8459
rfingers 7.12502
rthumb 14.6438 -36.3088
lclavicle 3.33958e-014 -5.48646e-014
lhumerus -23.5005 7.39578 78.6488
lradius 19.1133
lwrist 0.646448
lhand -9.48126 -4.3945
lfingers 7.12502
lthumb 16.4831 24.9253
rfemur -18.8977 4.06665 29.515
rtibia 37.233
rfoot -17.5101 -2.64358
rtoes -1.9044
lfemur -9.15097 5.37265 -6.95201
ltibia 37.2632
lfoot -27.885 14.3649
ltoes -8.91638
3
root 4.29042 17.1807 2.07515 1.51572 -4.2933 -10.7693
lowerback 0.0306984 -2.84537 10.1088
upperback 5.08906 -4.1386 0.955561
thorax 4.69833 -1.66073 -4.78661
lowerneck 0.849147 -14.3017 -13.5327
upperneck 0.336068 -20.2663 23.6519
head 3.9082 -10.0991 8.22164
rclavicle -4.27387e-015 -7.15625e-015
rhumerus -27.3646 -3.84016 -85.7128
rradius 27.0377
rwrist 2.49713
rhand -11.4119 -6.82995
rfingers 7.12502
rthumb 14.6236 -36.2943
lclavicle -4.27387e-015 -7.15625e-015
lhumerus -23.563 7.37066 78.7173
lradius 19.1748
lwrist 0.658922
lhand -9.47892 -4.48078
lfingers 7.12502
lthumb 16.4854 24.8388
rfemur -18.7504 3.95545 29.6817
rtibia 37.194
rfoot -17.6138 -2.66566
rtoes -1.67193
lfemur -9.11052 5.3764 -6.75432
ltibia 37.3129
lfoot -27.8274 14.2372
ltoes -9.25009
4
root 4.25722 17.1804 2.09284 1.49156 -4.09021 -10.8291
lowerback 0.00736688 -2.85583 10.248
upperback 5.08963 -4.16112 1.00248
thorax 4.70525 -1.66659 -4.81595
lowerneck 0.794914 -14.321 -13.4622
upperneck 0.303691 -20.277 23.6109
head 3.89753 -10.1016 8.19336
rclavicle 7.7526e-015 4.77083e-015
rhumerus -27.2468 -3.74938 -85.7498
rradius 27.2219
rwrist 2.57126
rhand -11.3142 -7.01467
rfingers 7.12502
rthumb 14.7178 -36.4722
lclavicle 7.7526e-015 4.77083e-015
lhumerus -23.5975 7.31013 78.7695
lradius 19.2783
lwrist 0.771142
lhand -9.55254 -4.58942
lfingers 7.12502
lthumb 16.4145 24.7361
rfemur -18.6298 3.88479 29.8715
rtibia 37.1581
rfoot -17.7159 -2.75843
rtoes -1.72637
lfemur -9.10806 5.34845 -6.53827
ltibia 37.367
lfoot -27.7536 14.1323
ltoes -9.56883
5
root 4.2269 17.1805 2.10708 1.49264 -3.90848 -10.8442
lowerback 0.00922613 -2.87873 10.3597
upperback 5.06471 -4.1935 1.02989
thorax 4.66879 -1.68123 -4.84838
lowerneck 0.82595 -14.3221 -13.4579
upperneck 0.254881 -20.2713 23.6117
head 3.87664 -10.1025 8.19737
rclavicle -2.18663e-014 2.46493e-014
rhumerus -27.1647 -3.42429 -85.889
rradius 27.4046
rwrist 2.2828
rhand -11.4367 -7.02732
rfingers 7.12502
rthumb 14.5998 -36.4934
lclavicle -2.18663e-014 2.46493e-014
lhumerus -23.6803 7.44854 78.7428
lradius 19.4592
lwrist 0.80066
lhand -9.55643 -4.50163
lfingers 7.12502
lthumb 16.4108 24.8242
rfemur -18.5602 3.76842 30.0008
rtibia 37.132
rfoot -17.7909 -2.74412
rtoes -1.22491
lfemur -9.15567 5.40505 -6.37448
ltibia 37.4295
lfoot -27.655 13.9449
ltoes -9.79952
6
root 4.19519 17.1802 2.12318 1.47743 -3.72045 -10.8723
lowerback -0.00366223 -2.89038 10.4764
upperback 5.05156 -4.21409 1.06441
thorax 4.65546 -1.68836 -4.87716
lowerneck 0.848059 -14.3303 -13.439
upperneck 0.194497 -20.2723 23.6123
head 3.85362 -10.1065 8.19778
rclavicle 5.06901e-015 7.95139e-015
rhumerus -27.0739 -3.22303 -85.9687
rradius 27.5821
rwrist 2.16451
rhand -11.4684 -7.07335
rfingers 7.12502
rthumb 14.5692 -36.5417
lclavicle 5.06901e-015 7.95139e-015
lhumerus -23.7379 7.47405 78.7619
lradius 19.5946
lwrist 0.869397
lhand -9.57311 -4.50235
lfingers 7.12502
lthumb 16.3947 24.8248
rfemur -18.4682 3.66777 30.1494
rtibia 37.1103
rfoot -17.8837 -2.76601
rtoes -0.939149
lfemur -9.17844 5.42253 -6.19487
ltibia 37.4987
lfoot -27.5804 13.7939
ltoes -10.0666
7
root 4.16391 17.1798 2.13873 1.46636 -3.53568 -10.8906
lowerback -0.0168647 -2.90123 10.5859
upperback 5.03629 -4.23318 1.0958
thorax 4.64037 -1.69517 -4.9051
lowerneck 0.876938 -14.3381 -13.4266
upperneck 0.133883 -20.2735 23.6153
head 3.83039 -10.111 8.20037
rclavicle -8.66701e-014 2.22639e-014
rhumerus -26.9831 -3.01092 -86.0497
rradius 27.7561
rwrist 2.03993
rhand -11.4997 -7.10821
rfingers 7.12502
rthumb 14.5391 -36.5787
lclavicle -8.66701e-014 2.22639e-014
lhumerus -23.7918 7.51297 78.7766
lradius 19.7275
lwrist 0.936527
lhand -9.59182 -4.50802
lfingers 7.12502
lthumb 16.3767 24.8206
rfemur -18.389 3.56554 30.2856
rtibia 37.0977
rfoot -17.979 -2.78271
rtoes -0.64462
lfemur -9.21035 5.45203 -6.02665
ltibia 37.5704
lfoot -27.5016 13.6325
ltoes -10.3279
8
root 4.13303 17.1794 2.1537 1.4596 -3.35456 -10.8991
lowerback -0.0294234 -2.91068 10.6885
upperback 5.01984 -4.24984 1.12284
thorax 4.62403 -1.70108 -4.93367
lowerneck 0.906814 -14.3471 -13.4178
upperneck 0.0748653 -20.2772 23.621
head 3.80865 -10.1168 8.20405
rclavicle -2.55438e-014 -1.66979e-014
rhumerus -26.892 -2.7904 -86.1335
rradius 27.9274
rwrist 1.91041
rhand -11.533 -7.12876
rfingers 7.12502
rthumb 14.507 -36.6016
lclavicle -2.55438e-014 -1.66979e-014
lhumerus -23.8396 7.55642 78.7874
lradius 19.8601
lwrist 1.00809
lhand -9.60821 -4.51355
lfingers 7.12502
lthumb 16.3609 24.8164
rfemur -18.3205 3.46171 30.4095
rtibia 37.0885
rfoot -18.0735 -2.79407
rtoes -0.342096
lfemur -9.25064 5.49272 -5.86968
ltibia 37.6423
lfoot -27.418 13.4614
ltoes -10.5796
9
root 4.10252 17.179 2.16817 1.4566 -3.17759 -10.8969
lowerback -0.042567 -2.91762 10.7825
upperback 5.00207 -4.26274 1.14589
thorax 4.60732 -1.70547 -4.96163
lowerneck 0.944632 -14.357 -13.4155
upperneck 0.0138336 -20.2828 23.6318
head 3.78667 -10.1241 8.21064
rclavicle 1.75924e-014 -3.18055e-014
rhumerus -26.8026 -2.56357 -86.2175
rradius 28.0948
rwrist 1.77569
rhand -11.5715 -7.12696
rfingers 7.12502
rthumb 14.4699 -36.6024
lclavicle 1.75924e-014 -3.18055e-014
lhumerus -23.8798 7.60223 78.7963
lradius 19.987
lwrist 1.07973
lhand -9.61945 -4.52395
lfingers 7.12502
lthumb 16.3501 24.8069
rfemur -18.2628 3.35445 30.52
rtibia 37.0851
rfoot -18.1689 -2.79851
rtoes -0.0326032
lfemur -9.29904 5.54618 -5.72486
ltibia 37.717
lfoot -27.3314 13.2798
ltoes -10.824
10
root 4.07231 17.1785 2.18221 1.45708 -3.0042 -10.8854
lowerback -0.0575675 -2.92125 10.8688
upperback 4.98412 -4.27109 1.16552
thorax 4.59234 -1.70778 -4.98897
lowerneck 0.985179 -14.369 -13.4165
upperneck -0.0470707 -20.292 23.645
head 3.76558 -10.1334 8.21817
rclavicle -1.67973e-014 1.27222e-014
rhumerus -26.7129 -2.33956 -86.2979
rradius 28.2579
rwrist 1.65106
rhand -11.605 -7.11278
rfingers 7.12502
rthumb 14.4376 -36.5906
lclavicle -1.67973e-014 1.27222e-014
lhumerus -23.9086 7.64177 78.8064
lradius 20.104
lwrist 1.15384
lhand -9.62844 -4.54953
lfingers 7.12502
lthumb 16.3414 24.782
rfemur -18.2147 3.2457 30.6191
rtibia 37.0863
rfoot -18.2655 -2.80157
rtoes 0.255343
lfemur -9.35464 5.61053 -5.59035
ltibia 37.794
lfoot -27.2414 13.0901
ltoes -11.0655
11
root 4.04245 17.1782 2.19575 1.46199 -2.83451 -10.8654
lowerback -0.0740271 -2.92208 10.9478
upperback 4.96566 -4.27556 1.18184
thorax 4.5784 -1.70835 -5.01579
lowerneck 1.02723 -14.3832 -13.4202
upperneck -0.106315 -20.3048 23.6592
head 3.74582 -10.1444 8.22599
rclavicle -3.8763e-015 5.56597e-015
rhumerus -26.6235 -2.11275 -86.3772
rradius 28.4171
rwrist 1.52925
rhand -11.6375 -7.09004
rfingers 7.12502
rthumb 14.4063 -36.5701
lclavicle -3.8763e-015 5.56597e-015
lhumerus -23.9264 7.67811 78.816
lradius 20.2126
lwrist 1.22766
lhand -9.63472 -4.58685
lfingers 7.12502
lthumb 16.3354 24.7452
rfemur -18.1765 3.1347 30.7073
rtibia 37.0907
rfoot -18.3611 -2.80326
rtoes 0.525507
lfemur -9.41881 5.68607 -5.46566
ltibia 37.8733
lfoot -27.1468 12.8926
ltoes -11.3027
12
root 4.01292 17.178 2.2088 1.47123 -2.66824 -10.8386
lowerback -0.0922574 -2.92007 11.0207
upperback 4.94711 -4.2762 1.19541
thorax 4.56611 -1.70715 -5.04218
lowerneck 1.06854 -14.4001 -13.4255
upperneck -0.162545 -20.3217 23.6735
head 3.72803 -10.1573 8.23335
rclavicle 9.93923e-015 -7.15625e-015
rhumerus -26.5342 -1.88401 -86.455
rradius 28.5723
rwrist 1.41134
rhand -11.6667 -7.06659
rfingers 7.12502
rthumb 14.3782 -36.5486
lclavicle 9.93923e-015 -7.15625e-015
lhumerus -23.9327 7.70807 78.8261
lradius 20.3133
lwrist 1.30141
lhand -9.63833 -4.63502
lfingers 7.12502
lthumb 16.3319 24.6973
rfemur -18.1472 3.02254 30.7868
rtibia 37.0968
rfoot -18.4543 -2.80599
rtoes 0.773902
lfemur -9.49132 5.77154 -5.349
ltibia 37.955
lfoot -27.0475 12.6885
ltoes -11.5364
13
root 3.98374 17.1779 2.22138 1.48455 -2.50487 -10.8064
lowerback -0.112372 -2.91539 11.0887
upperback 4.92872 -4.27336 1.20683
thorax 4.55573 -1.70427 -5.06817
lowerneck 1.10839 -14.4196 -13.4321
upperneck -0.215491 -20.3429 23.6875
head 3.71234 -10.1721 8.23995
rclavicle 6.82825e-014 -1.27222e-014
rhumerus -26.4446 -1.65424 -86.5308
rradius 28.7229
rwrist 1.29949
rhand -11.6893 -7.05113
rfingers 7.12502
rthumb 14.3564 -36.5347
lclavicle 6.82825e-014 -1.27222e-014
lhumerus -23.9274 7.73037 78.8373
lradius 20.4064
lwrist 1.37368
lhand -9.64033 -4.69298
lfingers 7.12502
lthumb 16.33 24.6395
rfemur -18.1257 2.91047 30.8593
rtibia 37.1035
rfoot -18.5435 -2.81208
rtoes 0.999218
lfemur -9.5718 5.86557 -5.23856
ltibia 38.039
lfoot -26.9439 12.4786
ltoes -11.7646
